<?xml version="1.0" encoding="UTF-8"?>
<!DOCTYPE svg PUBLIC "-//W3C//DTD SVG 1.1//EN" "http://www.w3.org/Graphics/SVG/1.1/DTD/svg11.dtd">
<!-- Creator: CorelDRAW X6 -->
<svg xmlns="http://www.w3.org/2000/svg" xml:space="preserve" width="1024px" height="600px" version="1.1" style="shape-rendering:geometricPrecision; text-rendering:geometricPrecision; image-rendering:optimizeQuality; fill-rule:evenodd; clip-rule:evenodd"
viewBox="0 0 1024 600"
 xmlns:xlink="http://www.w3.org/1999/xlink">
 <defs>
  <style type="text/css">
   <![CDATA[
    .str0 {stroke:black;stroke-width:2.08347}
    .fil0 {fill:lime}
   ]]>
  </style>
 </defs>
 <g id="Layer_x0020_1">
  <metadata id="CorelCorpID_0Corel-Layer"/>
  <path class="fil0 str0" d="M322 446c0,-18 -9,-33 -28,-47 -15,-10 -32,-18 -53,-23 6,7 9,13 9,21 0,7 -3,12 -9,16 -5,3 -11,5 -18,5 -6,0 -10,-6 -12,-19 -1,-9 -3,-18 -4,-27l-8 13 -19 0 -8 -13c-1,9 -3,18 -4,27 -3,13 -7,19 -12,19 -7,0 -13,-2 -18,-5 -6,-4 -9,-9 -9,-16 0,-7 3,-14 9,-21 -20,5 -38,13 -53,23 -19,13 -28,29 -28,47 0,13 5,24 15,35 8,9 19,16 32,23 -3,-9 -5,-16 -5,-22 0,-6 2,-10 5,-13 2,-1 4,-2 6,-2 7,0 17,6 28,17 2,-2 3,-3 5,-5 4,-3 7,-6 10,-7 1,-1 3,-1 4,-1 12,0 22,15 32,46 9,-31 20,-46 32,-46 1,0 3,0 4,1 4,2 9,5 15,11 11,-11 20,-17 28,-17 2,0 4,1 6,2 3,2 5,6 5,13 0,6 -2,14 -5,22 13,-6 24,-14 32,-23 10,-11 15,-23 15,-35z"/>
 </g>
</svg>
