<?xml version="1.0" encoding="UTF-8"?>
<!DOCTYPE svg PUBLIC "-//W3C//DTD SVG 1.1//EN" "http://www.w3.org/Graphics/SVG/1.1/DTD/svg11.dtd">
<!-- Creator: CorelDRAW X6 -->
<svg xmlns="http://www.w3.org/2000/svg" xml:space="preserve" width="3.41333in" height="2in" version="1.1" style="shape-rendering:geometricPrecision; text-rendering:geometricPrecision; image-rendering:optimizeQuality; fill-rule:evenodd; clip-rule:evenodd"
viewBox="0 0 3413 2000"
 xmlns:xlink="http://www.w3.org/1999/xlink">
 <defs>
  <style type="text/css">
   <![CDATA[
    .str0 {stroke:black;stroke-width:6.94488}
    .fil0 {fill:none}
   ]]>
  </style>
 </defs>
 <g id="Layer_x0020_1">
  <metadata id="CorelCorpID_0Corel-Layer"/>
  <path class="fil0 str0" d="M2993 967c0,-188 -101,-353 -302,-496 -155,-111 -341,-192 -558,-244 67,69 100,143 100,220 0,71 -31,127 -92,168 -53,35 -117,52 -192,52 -59,0 -103,-69 -132,-206 -15,-96 -29,-192 -44,-288l-80 134 -200 0 -80 -134c-15,96 -29,192 -44,288 -29,137 -73,206 -132,206 -75,0 -139,-17 -192,-52 -61,-41 -92,-97 -92,-168 0,-77 33,-151 100,-220 -217,52 -403,133 -558,244 -201,143 -302,308 -302,496 0,133 53,257 160,372 87,93 200,173 340,240 -35,-91 -52,-170 -52,-238 0,-64 17,-109 52,-134 19,-13 40,-20 64,-20 79,0 177,60 296,180 17,-19 35,-35 52,-50 41,-36 77,-59 108,-70 15,-5 29,-8 42,-8 125,0 238,163 338,488 100,-325 212,-488 336,-488 15,0 29,3 44,8 45,16 99,56 160,120 119,-119 217,-178 296,-178 24,0 45,6 64,18 35,24 52,69 52,134 0,68 -17,147 -52,238 140,-67 253,-147 340,-240 107,-115 160,-239 160,-372z"/>
 </g>
</svg>
